<svg width="70" height="70" viewBox="0 0 70 70" fill="none" xmlns="http://www.w3.org/2000/svg">
<path d="M45.7555 0H24.2795C4.6655 0 0 4.6655 0 24.2445V45.7205C0 65.331 4.6305 70 24.2445 70H45.7205C65.331 70 70 65.3695 70 45.7555V24.2795C70 4.6655 65.3695 0 45.7555 0ZM56.511 49.945H51.4045C49.4725 49.945 48.8915 48.3805 45.4265 44.9155C42.4025 42 41.125 41.636 40.3585 41.636C39.3015 41.636 39.011 41.9265 39.011 43.386V47.978C39.011 49.2205 38.6085 49.9485 35.364 49.9485C32.2152 49.7369 29.1617 48.7802 26.4551 47.1574C23.7485 45.5345 21.4661 43.2918 19.796 40.614C15.8311 35.679 13.0723 29.887 11.739 23.6985C11.739 22.932 12.0295 22.239 13.489 22.239H18.592C19.9045 22.239 20.377 22.8235 20.8915 24.171C23.3695 31.465 27.5975 37.807 29.3125 37.807C29.9705 37.807 30.2575 37.5165 30.2575 35.875V28.364C30.0405 24.9375 28.2205 24.647 28.2205 23.408C28.2439 23.0812 28.3936 22.7764 28.638 22.5581C28.8824 22.3399 29.2021 22.2254 29.5295 22.239H37.5515C38.647 22.239 39.011 22.785 39.011 24.0975V34.2335C39.011 35.329 39.4835 35.693 39.8125 35.693C40.4705 35.693 40.978 35.329 42.182 34.125C44.768 30.9713 46.8809 27.4578 48.454 23.695C48.6148 23.243 48.9191 22.8561 49.3203 22.5932C49.7216 22.3303 50.1979 22.2059 50.6765 22.239H55.783C57.3125 22.239 57.638 23.0055 57.3125 24.0975C55.4557 28.257 53.1582 32.2054 50.4595 35.875C49.91 36.715 49.6895 37.1525 50.4595 38.136C50.967 38.9025 52.7555 40.397 53.9595 41.818C55.7092 43.5632 57.1621 45.5825 58.261 47.796C58.6985 49.217 57.967 49.945 56.511 49.945Z" fill="#4A4A52"/>
</svg>
