<svg width="61" height="61" viewBox="0 0 61 61" fill="none" xmlns="http://www.w3.org/2000/svg">
<path d="M39.3023 0.0834961H20.8943C4.08225 0.0834961 0.083252 4.0825 0.083252 20.8645V39.2725C0.083252 56.0815 4.05225 60.0835 20.8643 60.0835H39.2723C56.0813 60.0835 60.0833 56.1145 60.0833 39.3025V20.8945C60.0833 4.0825 56.1143 0.0834961 39.3023 0.0834961ZM48.5213 42.8935H44.1443C42.4883 42.8935 41.9903 41.5525 39.0203 38.5825C36.4283 36.0835 35.3333 35.7715 34.6763 35.7715C33.7703 35.7715 33.5213 36.0205 33.5213 37.2715V41.2075C33.5213 42.2725 33.1763 42.8965 30.3953 42.8965C27.6963 42.7151 25.079 41.8951 22.759 40.5041C20.4391 39.113 18.4828 37.1907 17.0513 34.8955C13.6528 30.6655 11.2881 25.7009 10.1453 20.3965C10.1453 19.7395 10.3943 19.1455 11.6453 19.1455H16.0193C17.1443 19.1455 17.5493 19.6465 17.9903 20.8015C20.1143 27.0535 23.7383 32.4895 25.2083 32.4895C25.7723 32.4895 26.0183 32.2405 26.0183 30.8335V24.3955C25.8323 21.4585 24.2723 21.2095 24.2723 20.1475C24.2923 19.8674 24.4207 19.6061 24.6301 19.419C24.8396 19.232 25.1137 19.1339 25.3943 19.1455H32.2703C33.2093 19.1455 33.5213 19.6135 33.5213 20.7385V29.4265C33.5213 30.3655 33.9263 30.6775 34.2083 30.6775C34.7723 30.6775 35.2073 30.3655 36.2393 29.3335C38.4558 26.6303 40.2668 23.6187 41.6152 20.3935C41.7531 20.0061 42.0139 19.6744 42.3578 19.4491C42.7018 19.2237 43.11 19.1171 43.5203 19.1455H47.8973C49.2083 19.1455 49.4873 19.8025 49.2083 20.7385C47.6167 24.3038 45.6475 27.6881 43.3343 30.8335C42.8633 31.5535 42.6743 31.9285 43.3343 32.7715C43.7693 33.4285 45.3022 34.7095 46.3343 35.9275C47.834 37.4234 49.0793 39.1542 50.0213 41.0515C50.3963 42.2695 49.7693 42.8935 48.5213 42.8935Z" fill="white"/>
</svg>
