<svg xmlns="http://www.w3.org/2000/svg" version="1.1" xmlns:xlink="http://www.w3.org/1999/xlink" xmlns:svgjs="http://svgjs.dev/svgjs" width="2000" height="459" viewBox="0 0 2000 459"><g transform="matrix(1,0,0,1,-1.2121212121212466,0.9992581129922655)"><svg viewBox="0 0 396 91" data-background-color="#ffffff" preserveAspectRatio="xMidYMid meet" height="459" width="2000" xmlns="http://www.w3.org/2000/svg" xmlns:xlink="http://www.w3.org/1999/xlink"><g id="tight-bounds" transform="matrix(1,0,0,1,0.2400000000000091,-0.19810999625772752)"><svg viewBox="0 0 395.52 91.39621999251546" height="91.39621999251546" width="395.52"><g><svg viewBox="0 0 525.8224920553585 121.50634142623446" height="91.39621999251546" width="395.52"><g transform="matrix(1,0,0,1,130.3024920553584,2.1394025383779933)"><svg viewBox="0 0 395.52 117.22753634947847" height="117.22753634947847" width="395.52"><g id="textblocktransform"><svg viewBox="0 0 395.52 117.22753634947847" height="117.22753634947847" width="395.52" id="textblock"><g><svg viewBox="0 0 395.52 117.22753634947847" height="117.22753634947847" width="395.52"><g transform="matrix(1,0,0,1,0,0)"><svg width="395.52" viewBox="3.349999999999998 -36 266.54999999999995 75.95" height="117.22753634947847" data-palette-color="#80131a"><svg></svg><svg></svg><g class="wordmark-text-0" data-fill-palette-color="primary" id="text-0"><path d="M11.3-12.4v12.4h-7.95v-35.5h13.05c5 0 8.75 0.957 11.25 2.87 2.5 1.92 3.75 4.73 3.75 8.43v0c0 3.667-1.407 6.55-4.22 8.65-2.82 2.1-6.78 3.15-11.88 3.15v0zM16.35-28.85v0h-5.05v9.7h4.4c2.567 0 4.467-0.383 5.7-1.15 1.233-0.767 1.85-2.033 1.85-3.8v0c0-1.767-0.557-3-1.67-3.7-1.12-0.7-2.863-1.05-5.23-1.05zM51.7 0.5v0c-3.733 0.033-6.933-0.65-9.6-2.05-2.667-1.4-4.717-3.417-6.15-6.05-1.433-2.633-2.15-5.8-2.15-9.5v0c0-3.7 0.76-6.977 2.28-9.83 1.513-2.847 3.653-5.07 6.42-6.67 2.767-1.6 6.05-2.4 9.85-2.4v0c3.367 0 6.317 0.733 8.85 2.2 2.533 1.467 4.51 3.507 5.93 6.12 1.413 2.62 2.12 5.697 2.12 9.23v0c0 3.8-0.75 7.117-2.25 9.95-1.5 2.833-3.573 5.033-6.22 6.6-2.653 1.567-5.68 2.367-9.08 2.4zM51.4-6.75v0c2.833 0 5.133-1.027 6.9-3.08 1.767-2.047 2.65-4.887 2.65-8.52v0c0-3.167-0.8-5.693-2.4-7.58-1.6-1.88-3.75-2.82-6.45-2.82v0c-1.967 0-3.7 0.483-5.2 1.45-1.5 0.967-2.673 2.307-3.52 4.02-0.853 1.72-1.28 3.73-1.28 6.03v0c0 3.333 0.827 5.917 2.48 7.75 1.647 1.833 3.92 2.75 6.82 2.75zM88.05 0h-13.65v-35.5h11.5c7 0 12.283 1.483 15.85 4.45 3.567 2.967 5.35 7.367 5.35 13.2v0c0 3.533-0.8 6.633-2.4 9.3-1.6 2.667-3.833 4.76-6.7 6.28-2.867 1.513-6.183 2.27-9.95 2.27zM82.55-28.25v21h5.15c3.633 0 6.393-0.877 8.28-2.63 1.88-1.747 2.82-4.32 2.82-7.72v0c0-3.6-0.973-6.277-2.92-8.03-1.953-1.747-4.947-2.62-8.98-2.62v0zM137.5-11.7l6.05 4.75c-1.467 2.4-3.483 4.24-6.05 5.52-2.567 1.287-5.417 1.93-8.55 1.93v0c-3.833 0-7.107-0.7-9.82-2.1-2.72-1.4-4.803-3.41-6.25-6.03-1.453-2.613-2.18-5.753-2.18-9.42v0c0-3.767 0.8-7.067 2.4-9.9 1.6-2.833 3.827-5.05 6.68-6.65 2.847-1.6 6.137-2.4 9.87-2.4v0c3.267 0 6.027 0.6 8.28 1.8 2.247 1.2 4.137 3.017 5.67 5.45v0l-6.25 4.45c-0.8-1.533-1.9-2.65-3.3-3.35-1.4-0.7-2.9-1.05-4.5-1.05v0c-2.1 0-3.933 0.483-5.5 1.45-1.567 0.967-2.79 2.317-3.67 4.05-0.887 1.733-1.33 3.733-1.33 6v0c0 3.3 0.867 5.867 2.6 7.7 1.733 1.833 4.183 2.75 7.35 2.75v0c1.7 0 3.31-0.41 4.83-1.23 1.513-0.813 2.737-2.053 3.67-3.72zM150.05 0h-8.3l15.4-35.5h6.85l14.8 35.5h-8.3l-2.85-7.25h-14.65zM160.45-25.5l-4.65 11.45h9.15zM192.2 0.45v0c-4.367 0-7.75-0.933-10.15-2.8-2.4-1.867-3.767-4.617-4.1-8.25v0l7.65-1.1c0.2 1.733 0.883 3.057 2.05 3.97 1.167 0.92 2.783 1.38 4.85 1.38v0c1.767 0 3.127-0.31 4.08-0.93 0.947-0.613 1.42-1.487 1.42-2.62v0c0-1.033-0.5-1.85-1.5-2.45-1-0.6-2.65-1.167-4.95-1.7v0c-2.467-0.6-4.55-1.327-6.25-2.18-1.7-0.847-2.983-1.953-3.85-3.32-0.867-1.367-1.3-3.1-1.3-5.2v0c0-2.2 0.567-4.15 1.7-5.85 1.133-1.7 2.717-3.027 4.75-3.98 2.033-0.947 4.383-1.42 7.05-1.42v0c3.467 0 6.3 0.883 8.5 2.65 2.2 1.767 3.467 4.183 3.8 7.25v0l-7.15 1.2c-0.267-1.367-0.883-2.427-1.85-3.18-0.967-0.747-2.183-1.12-3.65-1.12v0c-1.467 0-2.65 0.34-3.55 1.02-0.9 0.687-1.35 1.613-1.35 2.78v0c0 1.067 0.433 1.923 1.3 2.57 0.867 0.653 2.45 1.263 4.75 1.83v0c2.433 0.6 4.533 1.273 6.3 2.02 1.767 0.753 3.127 1.78 4.08 3.08 0.947 1.3 1.42 3.067 1.42 5.3v0c0 2.167-0.583 4.083-1.75 5.75-1.167 1.667-2.807 2.967-4.92 3.9-2.12 0.933-4.58 1.4-7.38 1.4zM206.55-35.5h31.25l-1.05 7.15h-10.75v28.35h-8.2v-28.35h-11.25z" fill="#000000" fill-rule="nonzero" stroke="none" stroke-width="1" stroke-linecap="butt" stroke-linejoin="miter" stroke-miterlimit="10" stroke-dasharray="" stroke-dashoffset="0" font-family="none" font-weight="none" font-size="none" text-anchor="none" style="mix-blend-mode: normal" data-fill-palette-color="primary" opacity="1"></path><path transform="translate(0,39.5)" d="M17.65 0h-14.3v-35.5h13.3c4.3 0 7.693 0.833 10.18 2.5 2.48 1.667 3.72 4.133 3.72 7.4v0c0 1.6-0.367 3.067-1.1 4.4-0.733 1.333-1.75 2.383-3.05 3.15v0c1.433 0.667 2.6 1.657 3.5 2.97 0.9 1.32 1.35 2.88 1.35 4.68v0c0 2.067-0.55 3.883-1.65 5.45-1.1 1.567-2.667 2.783-4.7 3.65-2.033 0.867-4.45 1.3-7.25 1.3zM16.8-28.85v0h-5.45v7.65h4.95c2.1 0 3.643-0.317 4.63-0.95 0.98-0.633 1.47-1.633 1.47-3v0c0-1.233-0.45-2.16-1.35-2.78-0.9-0.613-2.317-0.92-4.25-0.92zM11.35-14.5v7.85h6.2c1.733 0 3.093-0.327 4.08-0.98 0.98-0.647 1.47-1.67 1.47-3.07v0c0-1.333-0.433-2.3-1.3-2.9-0.867-0.6-2.283-0.9-4.25-0.9v0zM39.2 0h-8.3l15.4-35.5h6.85l14.8 35.5h-8.3l-2.85-7.25h-14.65zM49.6-25.5l-4.65 11.45h9.15zM81.35 0.45v0c-4.367 0-7.75-0.933-10.15-2.8-2.4-1.867-3.767-4.617-4.1-8.25v0l7.65-1.1c0.2 1.733 0.883 3.057 2.05 3.97 1.167 0.92 2.783 1.38 4.85 1.38v0c1.767 0 3.123-0.31 4.07-0.93 0.953-0.613 1.43-1.487 1.43-2.62v0c0-1.033-0.5-1.85-1.5-2.45-1-0.6-2.65-1.167-4.95-1.7v0c-2.467-0.6-4.55-1.327-6.25-2.18-1.7-0.847-2.983-1.953-3.85-3.32-0.867-1.367-1.3-3.1-1.3-5.2v0c0-2.2 0.567-4.15 1.7-5.85 1.133-1.7 2.717-3.027 4.75-3.98 2.033-0.947 4.383-1.42 7.05-1.42v0c3.467 0 6.3 0.883 8.5 2.65 2.2 1.767 3.467 4.183 3.8 7.25v0l-7.15 1.2c-0.267-1.367-0.883-2.427-1.85-3.18-0.967-0.747-2.183-1.12-3.65-1.12v0c-1.467 0-2.65 0.34-3.55 1.02-0.9 0.687-1.35 1.613-1.35 2.78v0c0 1.067 0.433 1.923 1.3 2.57 0.867 0.653 2.45 1.263 4.75 1.83v0c2.433 0.6 4.533 1.273 6.3 2.02 1.767 0.753 3.123 1.78 4.07 3.08 0.953 1.3 1.43 3.067 1.43 5.3v0c0 2.167-0.583 4.083-1.75 5.75-1.167 1.667-2.81 2.967-4.93 3.9-2.113 0.933-4.57 1.4-7.37 1.4zM124.1-35.5v7.05h-16.3v7.05h15.25v7.05h-15.25v7.3h16.8l-0.5 7.05h-24.3v-35.5zM136.2 0h-7.55l1.25-35.5h6.85l12.45 25.25 12.35-25.25h6.85l0.95 35.5h-7.9l-0.45-18.5-9.15 18.5h-5.95l-9.05-18.3zM200.35-35.5v7.05h-16.3v7.05h15.25v7.05h-15.25v7.3h16.8l-0.5 7.05h-24.3v-35.5zM228-13.45v-22.05h7.85v35.5h-7.25l-15.75-22.05v22.05h-7.85v-35.5h7.25zM238.65-35.5h31.25l-1.05 7.15h-10.75v28.35h-8.2v-28.35h-11.25z" fill="#000000" fill-rule="nonzero" stroke="none" stroke-width="1" stroke-linecap="butt" stroke-linejoin="miter" stroke-miterlimit="10" stroke-dasharray="" stroke-dashoffset="0" font-family="none" font-weight="none" font-size="none" text-anchor="none" style="mix-blend-mode: normal" data-fill-palette-color="primary" opacity="1"></path></g></svg></g></svg></g></svg></g></svg></g><g><svg viewBox="0 0 117.51609165963737 121.50634142623446" height="121.50634142623446" width="117.51609165963737"><g><svg xmlns="http://www.w3.org/2000/svg" xmlns:xlink="http://www.w3.org/1999/xlink" version="1.1" x="0" y="0" viewBox="7.330997320848368 6.577 84.67100267915164 87.54599999999999" enable-background="new 0 0 100 100" xml:space="preserve" height="121.50634142623446" width="117.51609165963737" class="icon-icon-0" data-fill-palette-color="accent" id="icon-0"><path fill="#000000" d="M46.815 30.709l-4.897-0.053c-0.303 0.04-0.587 0.112-0.8 0.321-0.213 0.209-0.336 0.495-0.339 0.794l-0.132 12.563c-0.002 0.297 0.112 0.585 0.321 0.798s0.495 0.337 0.794 0.339l4.897 0.051h0.011c0.616 0 1.119-0.497 1.126-1.115l0.132-12.56C47.935 31.226 47.436 30.716 46.815 30.709zM45.555 43.259L42.91 43.23l0.11-10.311 2.645 0.029L45.555 43.259zM61.898 19.721c-0.418-0.171-0.902-0.077-1.225 0.242L49.96 30.626c-0.213 0.211-0.332 0.499-0.332 0.798V44.93c0 0.299 0.119 0.585 0.33 0.796l10.713 10.711c0.215 0.215 0.504 0.33 0.796 0.33 0.145 0 0.293-0.029 0.431-0.086 0.42-0.174 0.695-0.585 0.695-1.04v-34.88C62.593 20.306 62.32 19.897 61.898 19.721zM60.341 52.924l-8.462-8.459V31.893l8.462-8.422V52.924zM69.152 29.982c-0.427-0.453-1.139-0.473-1.592-0.048-0.453 0.427-0.475 1.139-0.048 1.592 1.667 1.768 2.546 4.079 2.476 6.509-0.073 2.428-1.084 4.684-2.852 6.348-0.453 0.427-0.475 1.139-0.048 1.592 0.222 0.235 0.521 0.354 0.82 0.354 0.277 0 0.554-0.101 0.772-0.306C73.232 41.731 73.445 34.534 69.152 29.982zM73.051 23.959c-0.453 0.427-0.475 1.139-0.048 1.592 6.735 7.144 6.406 18.434-0.737 25.167-0.453 0.427-0.475 1.139-0.048 1.592 0.222 0.235 0.521 0.354 0.82 0.354 0.277 0 0.554-0.101 0.772-0.306 8.046-7.586 8.42-20.305 0.833-28.351C74.215 23.554 73.504 23.534 73.051 23.959zM82.394 6.577H38.36c-5.306 0-9.608 4.301-9.608 9.608v44.034c0 5.306 4.302 9.608 9.608 9.608h44.034c5.306 0 9.608-4.301 9.608-9.608V16.185C92.002 10.879 87.7 6.577 82.394 6.577zM89.75 60.219c0 4.056-3.3 7.356-7.356 7.356H38.36c-4.056 0-7.356-3.3-7.356-7.356V16.185c0-4.056 3.3-7.356 7.356-7.356h44.034c4.056 0 7.356 3.3 7.356 7.356V60.219zM74.99 72.079h-2.317l0.227 0.932c0.482 1.972 0.165 4.015-0.891 5.75-1.056 1.735-2.725 2.953-4.697 3.435l-38.869 9.458c-4.059 0.987-8.193-1.517-9.185-5.592L9.802 47.195c-0.482-1.973-0.163-4.015 0.893-5.75s2.724-2.953 4.697-3.435L26.5 35.307v-2.316l-11.64 2.831c-2.557 0.622-4.719 2.203-6.089 4.453-1.368 2.247-1.779 4.895-1.157 7.452l9.458 38.867c0.62 2.557 2.201 4.719 4.451 6.089 1.563 0.952 3.32 1.44 5.106 1.44 0.781 0 1.568-0.092 2.346-0.284l38.869-9.458c2.557-0.62 4.719-2.201 6.087-4.451 1.37-2.247 1.779-4.895 1.157-7.452L74.99 72.079z" data-fill-palette-color="accent"></path></svg></g></svg></g></svg></g><defs></defs></svg><rect width="395.52" height="91.39621999251546" fill="none" stroke="none" visibility="hidden"></rect></g></svg></g></svg>